<mxfile host="app.diagrams.net" modified="2021-09-23T13:41:11.843Z" agent="5.0 (Windows NT 10.0; Win64; x64) AppleWebKit/537.36 (KHTML, like Gecko) Chrome/92.0.4515.159 Safari/537.36" etag="foWFqooRCzIadFy2-DmP" version="15.3.0" type="github">
  <diagram id="6vDUOQTfyVBlHkCTRro8" name="Page-1">
    <mxGraphModel dx="2249" dy="743" grid="1" gridSize="10" guides="1" tooltips="1" connect="1" arrows="1" fold="1" page="1" pageScale="1" pageWidth="827" pageHeight="1169" math="0" shadow="0">
      <root>
        <mxCell id="0" />
        <mxCell id="1" parent="0" />
        <mxCell id="90n0NNBnAEVnuFfFXQSm-4" value="" style="edgeStyle=orthogonalEdgeStyle;rounded=0;orthogonalLoop=1;jettySize=auto;html=1;" edge="1" parent="1" source="90n0NNBnAEVnuFfFXQSm-1" target="90n0NNBnAEVnuFfFXQSm-3">
          <mxGeometry relative="1" as="geometry" />
        </mxCell>
        <mxCell id="90n0NNBnAEVnuFfFXQSm-15" value="" style="edgeStyle=orthogonalEdgeStyle;rounded=0;orthogonalLoop=1;jettySize=auto;html=1;" edge="1" parent="1" source="90n0NNBnAEVnuFfFXQSm-1" target="90n0NNBnAEVnuFfFXQSm-14">
          <mxGeometry relative="1" as="geometry">
            <Array as="points">
              <mxPoint x="-60" y="165" />
            </Array>
          </mxGeometry>
        </mxCell>
        <mxCell id="90n0NNBnAEVnuFfFXQSm-21" value="" style="edgeStyle=orthogonalEdgeStyle;rounded=0;orthogonalLoop=1;jettySize=auto;html=1;" edge="1" parent="1" source="90n0NNBnAEVnuFfFXQSm-1" target="90n0NNBnAEVnuFfFXQSm-20">
          <mxGeometry relative="1" as="geometry" />
        </mxCell>
        <mxCell id="90n0NNBnAEVnuFfFXQSm-27" value="" style="edgeStyle=orthogonalEdgeStyle;rounded=0;orthogonalLoop=1;jettySize=auto;html=1;fontFamily=Helvetica;" edge="1" parent="1" source="90n0NNBnAEVnuFfFXQSm-1" target="90n0NNBnAEVnuFfFXQSm-26">
          <mxGeometry relative="1" as="geometry" />
        </mxCell>
        <mxCell id="90n0NNBnAEVnuFfFXQSm-1" value="" style="rounded=0;whiteSpace=wrap;html=1;" vertex="1" parent="1">
          <mxGeometry x="-200" y="155" width="110" height="60" as="geometry" />
        </mxCell>
        <mxCell id="90n0NNBnAEVnuFfFXQSm-2" value="funcionário" style="text;html=1;resizable=0;autosize=1;align=center;verticalAlign=middle;points=[];fillColor=none;strokeColor=none;rounded=0;" vertex="1" parent="1">
          <mxGeometry x="-185" y="175" width="70" height="20" as="geometry" />
        </mxCell>
        <mxCell id="90n0NNBnAEVnuFfFXQSm-3" value="" style="ellipse;whiteSpace=wrap;html=1;rounded=0;" vertex="1" parent="1">
          <mxGeometry x="-200" y="35" width="90" height="40" as="geometry" />
        </mxCell>
        <mxCell id="90n0NNBnAEVnuFfFXQSm-5" value="salário&lt;br&gt;" style="text;html=1;resizable=0;autosize=1;align=center;verticalAlign=middle;points=[];fillColor=none;strokeColor=none;rounded=0;" vertex="1" parent="1">
          <mxGeometry x="-175" y="45" width="50" height="20" as="geometry" />
        </mxCell>
        <mxCell id="90n0NNBnAEVnuFfFXQSm-6" style="edgeStyle=orthogonalEdgeStyle;rounded=0;orthogonalLoop=1;jettySize=auto;html=1;exitX=0.5;exitY=1;exitDx=0;exitDy=0;" edge="1" parent="1" source="90n0NNBnAEVnuFfFXQSm-3" target="90n0NNBnAEVnuFfFXQSm-3">
          <mxGeometry relative="1" as="geometry" />
        </mxCell>
        <mxCell id="90n0NNBnAEVnuFfFXQSm-7" value="" style="ellipse;whiteSpace=wrap;html=1;" vertex="1" parent="1">
          <mxGeometry x="-310" y="25" width="80" height="40" as="geometry" />
        </mxCell>
        <mxCell id="90n0NNBnAEVnuFfFXQSm-8" value="nome&lt;br&gt;" style="text;html=1;resizable=0;autosize=1;align=center;verticalAlign=middle;points=[];fillColor=none;strokeColor=none;rounded=0;" vertex="1" parent="1">
          <mxGeometry x="-295" y="35" width="50" height="20" as="geometry" />
        </mxCell>
        <mxCell id="90n0NNBnAEVnuFfFXQSm-10" value="" style="endArrow=none;html=1;entryX=0.14;entryY=0.95;entryDx=0;entryDy=0;entryPerimeter=0;" edge="1" parent="1" target="90n0NNBnAEVnuFfFXQSm-8">
          <mxGeometry width="50" height="50" relative="1" as="geometry">
            <mxPoint x="-250" y="55" as="sourcePoint" />
            <mxPoint x="-290" y="45" as="targetPoint" />
          </mxGeometry>
        </mxCell>
        <mxCell id="90n0NNBnAEVnuFfFXQSm-13" value="" style="edgeStyle=orthogonalEdgeStyle;rounded=0;orthogonalLoop=1;jettySize=auto;html=1;exitX=0.5;exitY=1;exitDx=0;exitDy=0;" edge="1" parent="1" source="90n0NNBnAEVnuFfFXQSm-7" target="90n0NNBnAEVnuFfFXQSm-2">
          <mxGeometry relative="1" as="geometry">
            <mxPoint x="-270" y="165" as="sourcePoint" />
            <Array as="points">
              <mxPoint x="-270" y="120" />
              <mxPoint x="-210" y="120" />
              <mxPoint x="-210" y="185" />
            </Array>
          </mxGeometry>
        </mxCell>
        <mxCell id="90n0NNBnAEVnuFfFXQSm-14" value="" style="ellipse;whiteSpace=wrap;html=1;rounded=0;" vertex="1" parent="1">
          <mxGeometry x="-110" y="5" width="80" height="50" as="geometry" />
        </mxCell>
        <mxCell id="90n0NNBnAEVnuFfFXQSm-16" value="telefone" style="text;html=1;resizable=0;autosize=1;align=center;verticalAlign=middle;points=[];fillColor=none;strokeColor=none;rounded=0;" vertex="1" parent="1">
          <mxGeometry x="-100" y="20" width="60" height="20" as="geometry" />
        </mxCell>
        <mxCell id="90n0NNBnAEVnuFfFXQSm-18" value="" style="ellipse;whiteSpace=wrap;html=1;fillColor=none;gradientColor=#ffffff;" vertex="1" parent="1">
          <mxGeometry x="-120" width="100" height="60" as="geometry" />
        </mxCell>
        <mxCell id="90n0NNBnAEVnuFfFXQSm-42" value="" style="edgeStyle=orthogonalEdgeStyle;rounded=0;orthogonalLoop=1;jettySize=auto;html=1;fontFamily=Helvetica;" edge="1" parent="1" source="90n0NNBnAEVnuFfFXQSm-20" target="90n0NNBnAEVnuFfFXQSm-41">
          <mxGeometry relative="1" as="geometry" />
        </mxCell>
        <mxCell id="90n0NNBnAEVnuFfFXQSm-51" value="" style="edgeStyle=orthogonalEdgeStyle;rounded=0;orthogonalLoop=1;jettySize=auto;html=1;fontFamily=Helvetica;" edge="1" parent="1" source="90n0NNBnAEVnuFfFXQSm-20" target="90n0NNBnAEVnuFfFXQSm-50">
          <mxGeometry relative="1" as="geometry" />
        </mxCell>
        <mxCell id="90n0NNBnAEVnuFfFXQSm-20" value="" style="rhombus;whiteSpace=wrap;html=1;rounded=0;fontFamily=Helvetica;strokeColor=#000000;" vertex="1" parent="1">
          <mxGeometry x="5" y="145" width="105" height="80" as="geometry" />
        </mxCell>
        <mxCell id="90n0NNBnAEVnuFfFXQSm-48" value="" style="edgeStyle=orthogonalEdgeStyle;rounded=0;orthogonalLoop=1;jettySize=auto;html=1;fontFamily=Helvetica;" edge="1" parent="1" source="90n0NNBnAEVnuFfFXQSm-23" target="90n0NNBnAEVnuFfFXQSm-47">
          <mxGeometry relative="1" as="geometry" />
        </mxCell>
        <mxCell id="90n0NNBnAEVnuFfFXQSm-23" value="trabalha_em" style="text;html=1;resizable=0;autosize=1;align=center;verticalAlign=middle;points=[];fillColor=none;strokeColor=none;rounded=0;fontFamily=Helvetica;" vertex="1" parent="1">
          <mxGeometry x="17.5" y="175" width="80" height="20" as="geometry" />
        </mxCell>
        <mxCell id="90n0NNBnAEVnuFfFXQSm-30" value="" style="edgeStyle=orthogonalEdgeStyle;rounded=0;orthogonalLoop=1;jettySize=auto;html=1;fontFamily=Helvetica;" edge="1" parent="1" source="90n0NNBnAEVnuFfFXQSm-26" target="90n0NNBnAEVnuFfFXQSm-29">
          <mxGeometry relative="1" as="geometry" />
        </mxCell>
        <mxCell id="90n0NNBnAEVnuFfFXQSm-26" value="" style="rhombus;whiteSpace=wrap;html=1;rounded=0;" vertex="1" parent="1">
          <mxGeometry x="-185" y="285" width="80" height="80" as="geometry" />
        </mxCell>
        <mxCell id="90n0NNBnAEVnuFfFXQSm-33" value="" style="edgeStyle=orthogonalEdgeStyle;rounded=0;orthogonalLoop=1;jettySize=auto;html=1;fontFamily=Helvetica;" edge="1" parent="1" source="90n0NNBnAEVnuFfFXQSm-29" target="90n0NNBnAEVnuFfFXQSm-32">
          <mxGeometry relative="1" as="geometry" />
        </mxCell>
        <mxCell id="90n0NNBnAEVnuFfFXQSm-35" value="" style="edgeStyle=orthogonalEdgeStyle;rounded=0;orthogonalLoop=1;jettySize=auto;html=1;fontFamily=Helvetica;" edge="1" parent="1" source="90n0NNBnAEVnuFfFXQSm-29" target="90n0NNBnAEVnuFfFXQSm-36">
          <mxGeometry relative="1" as="geometry">
            <mxPoint x="-190" y="600" as="targetPoint" />
          </mxGeometry>
        </mxCell>
        <mxCell id="90n0NNBnAEVnuFfFXQSm-29" value="" style="whiteSpace=wrap;html=1;rounded=0;" vertex="1" parent="1">
          <mxGeometry x="-205" y="455" width="120" height="60" as="geometry" />
        </mxCell>
        <mxCell id="90n0NNBnAEVnuFfFXQSm-31" value="departamento&lt;br&gt;" style="text;html=1;resizable=0;autosize=1;align=center;verticalAlign=middle;points=[];fillColor=none;strokeColor=none;rounded=0;fontFamily=Helvetica;" vertex="1" parent="1">
          <mxGeometry x="-190" y="475" width="90" height="20" as="geometry" />
        </mxCell>
        <mxCell id="90n0NNBnAEVnuFfFXQSm-32" value="" style="ellipse;whiteSpace=wrap;html=1;rounded=0;" vertex="1" parent="1">
          <mxGeometry x="-130" y="595" width="85" height="30" as="geometry" />
        </mxCell>
        <mxCell id="90n0NNBnAEVnuFfFXQSm-36" value="" style="ellipse;whiteSpace=wrap;html=1;fontFamily=Helvetica;strokeColor=#000000;fillColor=none;gradientColor=#ffffff;" vertex="1" parent="1">
          <mxGeometry x="-255" y="600" width="80" height="35" as="geometry" />
        </mxCell>
        <mxCell id="90n0NNBnAEVnuFfFXQSm-37" value="setor&amp;nbsp;" style="text;html=1;resizable=0;autosize=1;align=center;verticalAlign=middle;points=[];fillColor=none;strokeColor=none;rounded=0;fontFamily=Helvetica;" vertex="1" parent="1">
          <mxGeometry x="-110" y="600" width="50" height="20" as="geometry" />
        </mxCell>
        <mxCell id="90n0NNBnAEVnuFfFXQSm-38" value="número" style="text;html=1;resizable=0;autosize=1;align=center;verticalAlign=middle;points=[];fillColor=none;strokeColor=none;rounded=0;fontFamily=Helvetica;" vertex="1" parent="1">
          <mxGeometry x="-245" y="605" width="60" height="20" as="geometry" />
        </mxCell>
        <mxCell id="90n0NNBnAEVnuFfFXQSm-39" value="" style="endArrow=none;html=1;fontFamily=Helvetica;exitX=0.067;exitY=1.05;exitDx=0;exitDy=0;exitPerimeter=0;" edge="1" parent="1" source="90n0NNBnAEVnuFfFXQSm-38">
          <mxGeometry width="50" height="50" relative="1" as="geometry">
            <mxPoint x="110" y="495" as="sourcePoint" />
            <mxPoint x="-185" y="621" as="targetPoint" />
            <Array as="points" />
          </mxGeometry>
        </mxCell>
        <mxCell id="90n0NNBnAEVnuFfFXQSm-40" value="" style="endArrow=none;html=1;fontFamily=Helvetica;entryX=0.85;entryY=0.95;entryDx=0;entryDy=0;entryPerimeter=0;" edge="1" parent="1" target="90n0NNBnAEVnuFfFXQSm-38">
          <mxGeometry width="50" height="50" relative="1" as="geometry">
            <mxPoint x="-240" y="624" as="sourcePoint" />
            <mxPoint x="-186" y="618" as="targetPoint" />
            <Array as="points" />
          </mxGeometry>
        </mxCell>
        <mxCell id="90n0NNBnAEVnuFfFXQSm-41" value="" style="ellipse;whiteSpace=wrap;html=1;rounded=0;" vertex="1" parent="1">
          <mxGeometry x="-30" y="335" width="112.5" height="40" as="geometry" />
        </mxCell>
        <mxCell id="90n0NNBnAEVnuFfFXQSm-45" value="associado_A" style="text;html=1;resizable=0;autosize=1;align=center;verticalAlign=middle;points=[];fillColor=none;strokeColor=none;rounded=0;fontFamily=Helvetica;" vertex="1" parent="1">
          <mxGeometry x="-190" y="315" width="80" height="20" as="geometry" />
        </mxCell>
        <mxCell id="90n0NNBnAEVnuFfFXQSm-46" value="data_de_inicio" style="text;html=1;resizable=0;autosize=1;align=center;verticalAlign=middle;points=[];fillColor=none;strokeColor=none;rounded=0;fontFamily=Helvetica;" vertex="1" parent="1">
          <mxGeometry x="-18.75" y="345" width="90" height="20" as="geometry" />
        </mxCell>
        <mxCell id="90n0NNBnAEVnuFfFXQSm-47" value="" style="ellipse;whiteSpace=wrap;html=1;fontFamily=Helvetica;strokeColor=#000000;fillColor=none;gradientColor=#ffffff;" vertex="1" parent="1">
          <mxGeometry x="110" y="325" width="110" height="40" as="geometry" />
        </mxCell>
        <mxCell id="90n0NNBnAEVnuFfFXQSm-49" value="horas_trabalhadas&lt;br&gt;" style="text;html=1;resizable=0;autosize=1;align=center;verticalAlign=middle;points=[];fillColor=none;strokeColor=none;rounded=0;fontFamily=Helvetica;" vertex="1" parent="1">
          <mxGeometry x="110" y="335" width="110" height="20" as="geometry" />
        </mxCell>
        <mxCell id="90n0NNBnAEVnuFfFXQSm-54" value="" style="edgeStyle=orthogonalEdgeStyle;rounded=0;orthogonalLoop=1;jettySize=auto;html=1;fontFamily=Helvetica;" edge="1" parent="1" source="90n0NNBnAEVnuFfFXQSm-50" target="90n0NNBnAEVnuFfFXQSm-53">
          <mxGeometry relative="1" as="geometry" />
        </mxCell>
        <mxCell id="90n0NNBnAEVnuFfFXQSm-63" value="" style="edgeStyle=orthogonalEdgeStyle;rounded=0;orthogonalLoop=1;jettySize=auto;html=1;fontFamily=Helvetica;" edge="1" parent="1" source="90n0NNBnAEVnuFfFXQSm-50" target="90n0NNBnAEVnuFfFXQSm-62">
          <mxGeometry relative="1" as="geometry" />
        </mxCell>
        <mxCell id="90n0NNBnAEVnuFfFXQSm-50" value="" style="whiteSpace=wrap;html=1;rounded=0;" vertex="1" parent="1">
          <mxGeometry x="182.5" y="155" width="120" height="60" as="geometry" />
        </mxCell>
        <mxCell id="90n0NNBnAEVnuFfFXQSm-52" value="projeto&lt;br&gt;" style="text;html=1;resizable=0;autosize=1;align=center;verticalAlign=middle;points=[];fillColor=none;strokeColor=none;rounded=0;fontFamily=Helvetica;" vertex="1" parent="1">
          <mxGeometry x="220" y="175" width="50" height="20" as="geometry" />
        </mxCell>
        <mxCell id="90n0NNBnAEVnuFfFXQSm-53" value="" style="ellipse;whiteSpace=wrap;html=1;rounded=0;" vertex="1" parent="1">
          <mxGeometry x="182.5" y="45" width="77.5" height="30" as="geometry" />
        </mxCell>
        <mxCell id="90n0NNBnAEVnuFfFXQSm-58" value="número&lt;br&gt;" style="text;html=1;resizable=0;autosize=1;align=center;verticalAlign=middle;points=[];fillColor=none;strokeColor=none;rounded=0;fontFamily=Helvetica;" vertex="1" parent="1">
          <mxGeometry x="191.25" y="50" width="60" height="20" as="geometry" />
        </mxCell>
        <mxCell id="90n0NNBnAEVnuFfFXQSm-61" value="" style="endArrow=none;html=1;fontFamily=Helvetica;" edge="1" parent="1">
          <mxGeometry width="50" height="50" relative="1" as="geometry">
            <mxPoint x="200" y="65" as="sourcePoint" />
            <mxPoint x="240" y="65" as="targetPoint" />
          </mxGeometry>
        </mxCell>
        <mxCell id="90n0NNBnAEVnuFfFXQSm-62" value="" style="ellipse;whiteSpace=wrap;html=1;rounded=0;" vertex="1" parent="1">
          <mxGeometry x="290" y="55" width="70" height="35" as="geometry" />
        </mxCell>
        <mxCell id="90n0NNBnAEVnuFfFXQSm-64" value="orçamento" style="text;html=1;resizable=0;autosize=1;align=center;verticalAlign=middle;points=[];fillColor=none;strokeColor=none;rounded=0;fontFamily=Helvetica;" vertex="1" parent="1">
          <mxGeometry x="290" y="65" width="70" height="20" as="geometry" />
        </mxCell>
        <mxCell id="90n0NNBnAEVnuFfFXQSm-71" value="" style="edgeStyle=orthogonalEdgeStyle;rounded=0;orthogonalLoop=1;jettySize=auto;html=1;fontFamily=Helvetica;" edge="1" parent="1" source="90n0NNBnAEVnuFfFXQSm-68">
          <mxGeometry relative="1" as="geometry">
            <mxPoint x="405" y="300" as="targetPoint" />
          </mxGeometry>
        </mxCell>
        <mxCell id="90n0NNBnAEVnuFfFXQSm-86" value="" style="edgeStyle=orthogonalEdgeStyle;rounded=0;orthogonalLoop=1;jettySize=auto;html=1;fontFamily=Helvetica;" edge="1" parent="1" source="90n0NNBnAEVnuFfFXQSm-68" target="90n0NNBnAEVnuFfFXQSm-87">
          <mxGeometry relative="1" as="geometry">
            <mxPoint x="390" y="170" as="targetPoint" />
            <Array as="points">
              <mxPoint x="295" y="235" />
              <mxPoint x="390" y="235" />
              <mxPoint x="390" y="185" />
            </Array>
          </mxGeometry>
        </mxCell>
        <mxCell id="90n0NNBnAEVnuFfFXQSm-68" value="" style="rhombus;whiteSpace=wrap;html=1;fontFamily=Helvetica;strokeColor=#000000;fillColor=none;gradientColor=#ffffff;" vertex="1" parent="1">
          <mxGeometry x="250" y="275" width="90" height="50" as="geometry" />
        </mxCell>
        <mxCell id="90n0NNBnAEVnuFfFXQSm-84" value="" style="edgeStyle=orthogonalEdgeStyle;rounded=0;orthogonalLoop=1;jettySize=auto;html=1;fontFamily=Helvetica;" edge="1" parent="1" source="90n0NNBnAEVnuFfFXQSm-69" target="90n0NNBnAEVnuFfFXQSm-52">
          <mxGeometry relative="1" as="geometry" />
        </mxCell>
        <mxCell id="90n0NNBnAEVnuFfFXQSm-93" value="" style="edgeStyle=orthogonalEdgeStyle;rounded=0;orthogonalLoop=1;jettySize=auto;html=1;fontFamily=Helvetica;" edge="1" parent="1" source="90n0NNBnAEVnuFfFXQSm-69">
          <mxGeometry relative="1" as="geometry">
            <mxPoint x="290" y="380" as="targetPoint" />
          </mxGeometry>
        </mxCell>
        <mxCell id="90n0NNBnAEVnuFfFXQSm-69" value="ultiliza_de&amp;nbsp;" style="text;html=1;resizable=0;autosize=1;align=center;verticalAlign=middle;points=[];fillColor=none;strokeColor=none;rounded=0;fontFamily=Helvetica;" vertex="1" parent="1">
          <mxGeometry x="260" y="290" width="70" height="20" as="geometry" />
        </mxCell>
        <mxCell id="90n0NNBnAEVnuFfFXQSm-75" value="" style="edgeStyle=orthogonalEdgeStyle;rounded=0;orthogonalLoop=1;jettySize=auto;html=1;fontFamily=Helvetica;" edge="1" parent="1" source="90n0NNBnAEVnuFfFXQSm-72" target="90n0NNBnAEVnuFfFXQSm-74">
          <mxGeometry relative="1" as="geometry" />
        </mxCell>
        <mxCell id="90n0NNBnAEVnuFfFXQSm-77" value="" style="edgeStyle=orthogonalEdgeStyle;rounded=0;orthogonalLoop=1;jettySize=auto;html=1;fontFamily=Helvetica;" edge="1" parent="1" source="90n0NNBnAEVnuFfFXQSm-72" target="90n0NNBnAEVnuFfFXQSm-76">
          <mxGeometry relative="1" as="geometry" />
        </mxCell>
        <mxCell id="90n0NNBnAEVnuFfFXQSm-79" value="" style="edgeStyle=orthogonalEdgeStyle;rounded=0;orthogonalLoop=1;jettySize=auto;html=1;fontFamily=Helvetica;" edge="1" parent="1" source="90n0NNBnAEVnuFfFXQSm-72" target="90n0NNBnAEVnuFfFXQSm-78">
          <mxGeometry relative="1" as="geometry" />
        </mxCell>
        <mxCell id="90n0NNBnAEVnuFfFXQSm-107" value="" style="edgeStyle=orthogonalEdgeStyle;rounded=0;orthogonalLoop=1;jettySize=auto;html=1;fontFamily=Helvetica;" edge="1" parent="1" source="90n0NNBnAEVnuFfFXQSm-72">
          <mxGeometry relative="1" as="geometry">
            <mxPoint x="460" y="410" as="targetPoint" />
          </mxGeometry>
        </mxCell>
        <mxCell id="90n0NNBnAEVnuFfFXQSm-72" value="" style="rounded=0;whiteSpace=wrap;html=1;fontFamily=Helvetica;strokeColor=#000000;fillColor=none;gradientColor=#ffffff;" vertex="1" parent="1">
          <mxGeometry x="400" y="270" width="120" height="60" as="geometry" />
        </mxCell>
        <mxCell id="90n0NNBnAEVnuFfFXQSm-73" value="peças" style="text;html=1;resizable=0;autosize=1;align=center;verticalAlign=middle;points=[];fillColor=none;strokeColor=none;rounded=0;fontFamily=Helvetica;" vertex="1" parent="1">
          <mxGeometry x="430" y="285" width="50" height="20" as="geometry" />
        </mxCell>
        <mxCell id="90n0NNBnAEVnuFfFXQSm-74" value="" style="ellipse;whiteSpace=wrap;html=1;rounded=0;fillColor=none;gradientColor=#ffffff;" vertex="1" parent="1">
          <mxGeometry x="500" y="210" width="90" height="30" as="geometry" />
        </mxCell>
        <mxCell id="90n0NNBnAEVnuFfFXQSm-76" value="" style="ellipse;whiteSpace=wrap;html=1;rounded=0;fillColor=none;gradientColor=#ffffff;" vertex="1" parent="1">
          <mxGeometry x="600" y="300" width="60" height="30" as="geometry" />
        </mxCell>
        <mxCell id="90n0NNBnAEVnuFfFXQSm-78" value="" style="ellipse;whiteSpace=wrap;html=1;rounded=0;fillColor=none;gradientColor=#ffffff;" vertex="1" parent="1">
          <mxGeometry x="520" y="365" width="80" height="35" as="geometry" />
        </mxCell>
        <mxCell id="90n0NNBnAEVnuFfFXQSm-80" value="número&lt;br&gt;" style="text;html=1;resizable=0;autosize=1;align=center;verticalAlign=middle;points=[];fillColor=none;strokeColor=none;rounded=0;fontFamily=Helvetica;" vertex="1" parent="1">
          <mxGeometry x="515" y="215" width="60" height="20" as="geometry" />
        </mxCell>
        <mxCell id="90n0NNBnAEVnuFfFXQSm-81" value="cor" style="text;html=1;resizable=0;autosize=1;align=center;verticalAlign=middle;points=[];fillColor=none;strokeColor=none;rounded=0;fontFamily=Helvetica;" vertex="1" parent="1">
          <mxGeometry x="615" y="305" width="30" height="20" as="geometry" />
        </mxCell>
        <mxCell id="90n0NNBnAEVnuFfFXQSm-82" value="peso" style="text;html=1;resizable=0;autosize=1;align=center;verticalAlign=middle;points=[];fillColor=none;strokeColor=none;rounded=0;fontFamily=Helvetica;" vertex="1" parent="1">
          <mxGeometry x="540" y="372.5" width="40" height="20" as="geometry" />
        </mxCell>
        <mxCell id="90n0NNBnAEVnuFfFXQSm-83" value="" style="ellipse;whiteSpace=wrap;html=1;fontFamily=Helvetica;strokeColor=#000000;fillColor=none;gradientColor=#ffffff;" vertex="1" parent="1">
          <mxGeometry x="590" y="290" width="80" height="50" as="geometry" />
        </mxCell>
        <mxCell id="90n0NNBnAEVnuFfFXQSm-87" value="" style="ellipse;whiteSpace=wrap;html=1;fontFamily=Helvetica;strokeColor=#000000;fillColor=none;gradientColor=#ffffff;" vertex="1" parent="1">
          <mxGeometry x="340" y="170" width="120" height="40" as="geometry" />
        </mxCell>
        <mxCell id="90n0NNBnAEVnuFfFXQSm-89" value="" style="edgeStyle=orthogonalEdgeStyle;rounded=0;orthogonalLoop=1;jettySize=auto;html=1;fontFamily=Helvetica;" edge="1" parent="1" source="90n0NNBnAEVnuFfFXQSm-88" target="90n0NNBnAEVnuFfFXQSm-90">
          <mxGeometry relative="1" as="geometry">
            <mxPoint x="430" y="110" as="targetPoint" />
          </mxGeometry>
        </mxCell>
        <mxCell id="90n0NNBnAEVnuFfFXQSm-88" value="material_ultilizado&lt;br&gt;" style="text;html=1;resizable=0;autosize=1;align=center;verticalAlign=middle;points=[];fillColor=none;strokeColor=none;rounded=0;fontFamily=Helvetica;" vertex="1" parent="1">
          <mxGeometry x="340" y="180" width="110" height="20" as="geometry" />
        </mxCell>
        <mxCell id="90n0NNBnAEVnuFfFXQSm-90" value="" style="ellipse;whiteSpace=wrap;html=1;fontFamily=Helvetica;strokeColor=#000000;fillColor=none;gradientColor=#ffffff;dashed=1;" vertex="1" parent="1">
          <mxGeometry x="370" y="100" width="120" height="50" as="geometry" />
        </mxCell>
        <mxCell id="90n0NNBnAEVnuFfFXQSm-91" value="fornecedor_ultilizado&lt;br&gt;" style="text;html=1;resizable=0;autosize=1;align=center;verticalAlign=middle;points=[];fillColor=none;strokeColor=none;rounded=0;dashed=1;fontFamily=Helvetica;" vertex="1" parent="1">
          <mxGeometry x="365" y="115" width="130" height="20" as="geometry" />
        </mxCell>
        <mxCell id="90n0NNBnAEVnuFfFXQSm-94" value="fornecedor&amp;nbsp;" style="text;html=1;resizable=0;autosize=1;align=center;verticalAlign=middle;points=[];fillColor=none;strokeColor=none;rounded=0;fontFamily=Helvetica;" vertex="1" parent="1">
          <mxGeometry x="251.25" y="390" width="80" height="20" as="geometry" />
        </mxCell>
        <mxCell id="90n0NNBnAEVnuFfFXQSm-103" value="" style="edgeStyle=orthogonalEdgeStyle;rounded=0;orthogonalLoop=1;jettySize=auto;html=1;fontFamily=Helvetica;" edge="1" parent="1" source="90n0NNBnAEVnuFfFXQSm-95" target="90n0NNBnAEVnuFfFXQSm-102">
          <mxGeometry relative="1" as="geometry" />
        </mxCell>
        <mxCell id="90n0NNBnAEVnuFfFXQSm-95" value="" style="rounded=0;whiteSpace=wrap;html=1;fontFamily=Helvetica;strokeColor=#000000;fillColor=none;gradientColor=#ffffff;" vertex="1" parent="1">
          <mxGeometry x="231.25" y="370" width="108.75" height="50" as="geometry" />
        </mxCell>
        <mxCell id="90n0NNBnAEVnuFfFXQSm-100" value="" style="edgeStyle=orthogonalEdgeStyle;rounded=0;orthogonalLoop=1;jettySize=auto;html=1;fontFamily=Helvetica;" edge="1" parent="1" source="90n0NNBnAEVnuFfFXQSm-96" target="90n0NNBnAEVnuFfFXQSm-95">
          <mxGeometry relative="1" as="geometry" />
        </mxCell>
        <mxCell id="90n0NNBnAEVnuFfFXQSm-96" value="" style="ellipse;whiteSpace=wrap;html=1;rounded=0;fillColor=none;gradientColor=#ffffff;" vertex="1" parent="1">
          <mxGeometry x="180" y="495" width="80" height="45" as="geometry" />
        </mxCell>
        <mxCell id="90n0NNBnAEVnuFfFXQSm-98" value="endereço" style="text;html=1;resizable=0;autosize=1;align=center;verticalAlign=middle;points=[];fillColor=none;strokeColor=none;rounded=0;fontFamily=Helvetica;" vertex="1" parent="1">
          <mxGeometry x="181.25" y="507.5" width="70" height="20" as="geometry" />
        </mxCell>
        <mxCell id="90n0NNBnAEVnuFfFXQSm-102" value="" style="ellipse;whiteSpace=wrap;html=1;rounded=0;fillColor=none;gradientColor=#ffffff;" vertex="1" parent="1">
          <mxGeometry x="270.01" y="495" width="70" height="35" as="geometry" />
        </mxCell>
        <mxCell id="90n0NNBnAEVnuFfFXQSm-104" value="número" style="text;html=1;resizable=0;autosize=1;align=center;verticalAlign=middle;points=[];fillColor=none;strokeColor=none;rounded=0;fontFamily=Helvetica;" vertex="1" parent="1">
          <mxGeometry x="275.01" y="502.5" width="60" height="20" as="geometry" />
        </mxCell>
        <mxCell id="90n0NNBnAEVnuFfFXQSm-105" value="" style="endArrow=none;html=1;fontFamily=Helvetica;exitX=0.116;exitY=0.975;exitDx=0;exitDy=0;exitPerimeter=0;" edge="1" parent="1" source="90n0NNBnAEVnuFfFXQSm-104">
          <mxGeometry width="50" height="50" relative="1" as="geometry">
            <mxPoint x="390" y="320" as="sourcePoint" />
            <mxPoint x="330" y="520" as="targetPoint" />
            <Array as="points">
              <mxPoint x="310" y="520" />
            </Array>
          </mxGeometry>
        </mxCell>
        <mxCell id="90n0NNBnAEVnuFfFXQSm-108" value="" style="rhombus;whiteSpace=wrap;html=1;fontFamily=Helvetica;strokeColor=#000000;fillColor=none;gradientColor=#ffffff;" vertex="1" parent="1">
          <mxGeometry x="420" y="410" width="80" height="40" as="geometry" />
        </mxCell>
        <mxCell id="90n0NNBnAEVnuFfFXQSm-111" value="" style="edgeStyle=orthogonalEdgeStyle;rounded=0;orthogonalLoop=1;jettySize=auto;html=1;fontFamily=Helvetica;" edge="1" parent="1" source="90n0NNBnAEVnuFfFXQSm-109">
          <mxGeometry relative="1" as="geometry">
            <mxPoint x="455" y="500" as="targetPoint" />
          </mxGeometry>
        </mxCell>
        <mxCell id="90n0NNBnAEVnuFfFXQSm-109" value="contém" style="text;html=1;resizable=0;autosize=1;align=center;verticalAlign=middle;points=[];fillColor=none;strokeColor=none;rounded=0;fontFamily=Helvetica;" vertex="1" parent="1">
          <mxGeometry x="430" y="420" width="50" height="20" as="geometry" />
        </mxCell>
        <mxCell id="90n0NNBnAEVnuFfFXQSm-115" value="" style="edgeStyle=orthogonalEdgeStyle;rounded=0;orthogonalLoop=1;jettySize=auto;html=1;fontFamily=Helvetica;" edge="1" parent="1" source="90n0NNBnAEVnuFfFXQSm-112" target="90n0NNBnAEVnuFfFXQSm-114">
          <mxGeometry relative="1" as="geometry" />
        </mxCell>
        <mxCell id="90n0NNBnAEVnuFfFXQSm-112" value="" style="rounded=0;whiteSpace=wrap;html=1;fontFamily=Helvetica;strokeColor=#000000;fillColor=none;gradientColor=#ffffff;" vertex="1" parent="1">
          <mxGeometry x="395" y="495" width="120" height="60" as="geometry" />
        </mxCell>
        <mxCell id="90n0NNBnAEVnuFfFXQSm-117" value="" style="edgeStyle=orthogonalEdgeStyle;rounded=0;orthogonalLoop=1;jettySize=auto;html=1;fontFamily=Helvetica;" edge="1" parent="1" source="90n0NNBnAEVnuFfFXQSm-113" target="90n0NNBnAEVnuFfFXQSm-116">
          <mxGeometry relative="1" as="geometry" />
        </mxCell>
        <mxCell id="90n0NNBnAEVnuFfFXQSm-113" value="depósitos" style="text;html=1;resizable=0;autosize=1;align=center;verticalAlign=middle;points=[];fillColor=none;strokeColor=none;rounded=0;fontFamily=Helvetica;" vertex="1" parent="1">
          <mxGeometry x="425" y="520" width="70" height="20" as="geometry" />
        </mxCell>
        <mxCell id="90n0NNBnAEVnuFfFXQSm-114" value="" style="ellipse;whiteSpace=wrap;html=1;rounded=0;fillColor=none;gradientColor=#ffffff;" vertex="1" parent="1">
          <mxGeometry x="390" y="640" width="80" height="40" as="geometry" />
        </mxCell>
        <mxCell id="90n0NNBnAEVnuFfFXQSm-116" value="" style="ellipse;whiteSpace=wrap;html=1;fontFamily=Helvetica;strokeColor=#000000;fillColor=none;gradientColor=#ffffff;" vertex="1" parent="1">
          <mxGeometry x="525" y="635" width="65" height="35" as="geometry" />
        </mxCell>
        <mxCell id="90n0NNBnAEVnuFfFXQSm-118" value="endereço" style="text;html=1;resizable=0;autosize=1;align=center;verticalAlign=middle;points=[];fillColor=none;strokeColor=none;rounded=0;fontFamily=Helvetica;" vertex="1" parent="1">
          <mxGeometry x="395" y="650" width="70" height="20" as="geometry" />
        </mxCell>
        <mxCell id="90n0NNBnAEVnuFfFXQSm-119" value="número" style="text;html=1;resizable=0;autosize=1;align=center;verticalAlign=middle;points=[];fillColor=none;strokeColor=none;rounded=0;fontFamily=Helvetica;" vertex="1" parent="1">
          <mxGeometry x="530" y="642.5" width="60" height="20" as="geometry" />
        </mxCell>
        <mxCell id="90n0NNBnAEVnuFfFXQSm-120" value="" style="endArrow=none;html=1;fontFamily=Helvetica;" edge="1" parent="1">
          <mxGeometry width="50" height="50" relative="1" as="geometry">
            <mxPoint x="520" y="660" as="sourcePoint" />
            <mxPoint x="595" y="660" as="targetPoint" />
          </mxGeometry>
        </mxCell>
      </root>
    </mxGraphModel>
  </diagram>
</mxfile>
